<?xml version="1.0" standalone="no"?>
<!DOCTYPE svg PUBLIC "-//W3C//DTD SVG 20010904//EN"
 "http://www.w3.org/TR/2001/REC-SVG-20010904/DTD/svg10.dtd">
<svg version="1.0" xmlns="http://www.w3.org/2000/svg"
 width="250.000000pt" height="269.000000pt" viewBox="0 0 250.000000 269.000000"
 preserveAspectRatio="xMidYMid meet">

<g transform="translate(0.000000,269.000000) scale(0.100000,-0.100000)"
fill="#000000" stroke="none">
<path d="M2255 2391 c-16 -10 -67 -56 -112 -102 l-82 -84 -76 3 c-65 3 -75 6
-75 22 0 30 -18 33 -50 10 -25 -18 -38 -20 -88 -14 -46 5 -59 10 -58 22 2 23
-32 27 -55 6 -16 -15 -32 -16 -122 -10 -100 6 -104 6 -125 -17 l-22 -24 186
-54 c160 -46 195 -59 240 -94 29 -22 54 -44 54 -48 0 -9 -207 -254 -234 -276
-13 -11 -35 -11 -117 -1 -77 9 -104 9 -115 -1 -8 -6 -14 -14 -14 -18 0 -3 32
-26 70 -50 39 -24 69 -48 67 -55 -2 -7 -51 -14 -126 -20 -105 -7 -138 -5 -242
13 -67 12 -131 28 -142 36 -26 18 -209 21 -321 4 l-75 -11 -78 38 c-82 40
-135 47 -216 29 -25 -5 -71 -3 -124 5 -68 11 -86 11 -92 1 -11 -18 -23 -204
-15 -235 l6 -26 317 2 316 2 -250 6 -250 5 95 12 c345 45 956 68 1215 46 l77
-6 30 -49 c16 -26 33 -48 38 -48 17 0 34 34 32 64 -2 31 -2 32 40 29 45 -3 38
4 -23 26 -23 8 -27 17 -31 61 -5 51 -4 53 36 90 71 65 241 209 246 209 3 0 23
-23 45 -51 33 -43 47 -79 88 -217 26 -91 51 -176 54 -189 7 -27 20 -25 44 9
16 21 17 35 9 118 -9 87 -8 96 11 123 16 22 18 32 9 43 -6 7 -18 11 -26 8 -21
-8 -20 129 1 147 21 17 19 41 -4 47 -20 5 -31 46 -31 117 0 37 7 47 99 141
103 104 122 140 107 200 -6 23 -11 25 -59 25 -34 0 -63 -7 -82 -19z"/>
<path d="M2362 1522 l-2 -63 -57 5 -58 5 60 -12 60 -12 3 33 c2 17 1 49 -1 70
-2 24 -4 16 -5 -26z"/>
<path d="M1948 1503 c6 -2 18 -2 25 0 6 3 1 5 -13 5 -14 0 -19 -2 -12 -5z"/>
<path d="M1465 1491 c-10 -16 -157 -138 -270 -223 -325 -244 -631 -405 -828
-436 -31 -5 -60 -6 -65 -3 -8 5 -20 50 -25 93 -1 9 -4 15 -8 12 -4 -2 -14 7
-22 20 l-16 24 97 1 c53 1 98 4 101 6 2 3 -43 5 -100 5 l-105 0 -22 46 c-13
26 -20 49 -17 53 4 3 52 9 108 12 90 5 94 6 32 7 l-70 2 0 75 c0 83 -4 79 78
90 27 4 47 9 44 11 -3 3 -59 -3 -126 -13 l-122 -17 6 -26 c4 -17 -6 -62 -26
-121 -23 -68 -33 -119 -37 -186 -6 -123 8 -174 66 -231 40 -41 45 -43 60 -29
14 15 14 18 -3 37 -18 20 -18 21 25 65 24 25 49 45 55 45 6 0 44 -34 85 -75
71 -71 76 -75 110 -69 34 7 74 26 175 84 30 18 58 27 70 24 13 -4 16 -2 7 4
-9 6 1 18 35 42 65 46 217 167 278 221 154 136 453 444 442 455 -3 3 -8 1 -12
-5z m-1286 -381 c0 -8 -7 1 -14 20 -18 46 -17 64 0 25 8 -16 14 -37 14 -45z"/>
<path d="M2063 1493 c9 -2 23 -2 30 0 6 3 -1 5 -18 5 -16 0 -22 -2 -12 -5z"/>
<path d="M2118 1483 c6 -2 18 -2 25 0 6 3 1 5 -13 5 -14 0 -19 -2 -12 -5z"/>
<path d="M583 1363 c9 -2 23 -2 30 0 6 3 -1 5 -18 5 -16 0 -22 -2 -12 -5z"/>
<path d="M295 1352 l-90 -4 90 -18 c90 -18 126 -19 64 -2 -33 9 -32 9 26 16
33 4 69 8 80 10 26 4 -54 3 -170 -2z"/>
<path d="M1948 1293 c7 -3 16 -2 19 1 4 3 -2 6 -13 5 -11 0 -14 -3 -6 -6z"/>
<path d="M548 1113 c18 -2 45 -2 60 0 15 2 0 4 -33 4 -33 0 -45 -2 -27 -4z"/>
<path d="M570 1080 c-35 -8 -35 -8 8 -7 24 1 46 5 48 9 6 9 -6 9 -56 -2z"/>
<path d="M498 993 c17 -2 47 -2 65 0 17 2 3 4 -33 4 -36 0 -50 -2 -32 -4z"/>
<path d="M310 862 c6 -13 14 -21 18 -18 3 4 -2 14 -12 24 -18 16 -18 16 -6 -6z"/>
<path d="M250 739 c-20 -17 -21 -19 -5 -13 11 4 30 7 43 7 18 -1 20 2 11 13
-15 18 -19 18 -49 -7z"/>
<path d="M2150 746 c-9 -12 -8 -15 7 -14 10 1 29 -2 43 -6 l25 -7 -25 20 c-30
25 -34 25 -50 7z"/>
<path d="M244 650 c-70 -68 -70 -69 -51 -89 19 -19 20 -19 93 52 70 67 73 71
58 89 -10 10 -20 18 -23 18 -3 0 -38 -32 -77 -70z"/>
<path d="M2112 699 c-16 -25 -13 -29 70 -101 55 -48 60 -50 77 -34 17 16 15
20 -54 86 -39 39 -73 70 -76 70 -2 0 -10 -9 -17 -21z"/>
<path d="M364 635 l-11 -36 23 22 c18 17 21 25 13 36 -15 17 -12 19 -25 -22z"/>
<path d="M2066 653 c-4 -10 1 -25 14 -37 l21 -21 -11 28 c-5 16 -8 33 -4 38 3
5 1 9 -4 9 -6 0 -13 -8 -16 -17z"/>
<path d="M512 644 c10 -10 20 -16 22 -13 3 3 -5 11 -17 18 -21 13 -21 12 -5
-5z"/>
<path d="M578 633 c12 -2 30 -2 40 0 9 3 -1 5 -23 4 -22 0 -30 -2 -17 -4z"/>
<path d="M713 623 c9 -2 23 -2 30 0 6 3 -1 5 -18 5 -16 0 -22 -2 -12 -5z"/>
<path d="M1979 578 l-27 -9 30 -29 c16 -17 28 -35 26 -41 -6 -17 71 -91 85
-83 34 19 34 25 7 54 -16 17 -38 30 -49 30 -18 0 -20 3 -10 19 24 38 -15 75
-62 59z"/>
<path d="M409 563 c-57 -35 -76 -110 -40 -154 l19 -24 -5 27 c-6 34 61 135 95
145 18 4 21 8 10 14 -20 13 -50 10 -79 -8z"/>
<path d="M620 566 c0 -2 7 -7 16 -10 8 -3 12 -2 9 4 -6 10 -25 14 -25 6z"/>
<path d="M520 532 c0 -33 -70 -130 -100 -141 l-25 -9 29 -7 c40 -11 77 5 103
44 26 39 30 88 8 117 -14 18 -14 18 -15 -4z"/>
<path d="M1898 527 c-16 -11 -1 -38 98 -175 1 -2 14 4 27 13 22 14 24 18 12
33 -8 9 -34 45 -59 80 -49 66 -51 67 -78 49z"/>
<path d="M1803 472 c-8 -5 -3 -11 17 -19 28 -10 29 -10 20 8 -12 21 -19 23
-37 11z"/>
<path d="M600 404 c-37 -81 -38 -107 -4 -133 34 -27 53 -27 29 -1 -18 20 -17
22 18 102 28 62 34 84 25 90 -27 17 -40 6 -68 -58z"/>
<path d="M1735 438 c-11 -6 -21 -12 -23 -13 -1 -1 17 -43 41 -92 40 -83 45
-89 65 -80 12 6 22 14 22 19 0 8 -76 166 -84 175 0 1 -10 -3 -21 -9z"/>
<path d="M1824 386 c-10 -21 -9 -25 12 -29 19 -3 22 -1 15 12 -5 9 -10 21 -12
28 -2 7 -9 2 -15 -11z"/>
<path d="M821 353 c-28 -107 -33 -125 -38 -139 -7 -18 39 -37 49 -20 8 15 50
177 46 181 -2 1 -13 6 -25 9 -19 6 -23 2 -32 -31z"/>
<path d="M1600 385 c0 -3 7 -17 16 -30 10 -15 14 -37 12 -55 -5 -34 -1 -36 30
-14 29 20 31 79 3 94 -21 11 -61 14 -61 5z"/>
<path d="M1543 370 c-22 -9 -22 -10 -6 -62 42 -138 39 -133 64 -130 12 1 24 4
26 5 3 4 -56 197 -60 196 -1 0 -12 -4 -24 -9z"/>
<path d="M918 348 c2 -11 -4 -31 -14 -46 -13 -19 -19 -44 -19 -82 l0 -55 35
-2 c19 -1 29 0 23 3 -9 4 -11 18 -7 44 4 24 2 40 -6 45 -8 5 -4 11 12 19 41
20 34 77 -11 89 -14 3 -17 0 -13 -15z"/>
<path d="M1430 329 c-7 -11 -10 -23 -7 -25 2 -2 9 7 15 21 14 30 7 33 -8 4z"/>
<path d="M1888 315 c-17 -37 -13 -42 15 -21 12 10 15 19 9 35 -7 20 -9 19 -24
-14z"/>
<path d="M1102 230 l-4 -100 26 0 c22 0 26 5 26 28 0 15 3 60 6 100 l6 72 -29
0 -28 0 -3 -100z"/>
<path d="M1213 305 c12 -13 24 -20 25 -14 7 18 -7 39 -27 39 -19 0 -19 -1 2
-25z"/>
<path d="M1320 288 c17 -24 48 -66 68 -95 32 -44 41 -51 62 -46 14 3 27 7 29
9 2 2 -13 23 -33 47 -20 24 -36 49 -36 56 0 6 -4 11 -9 11 -6 0 -18 14 -28 30
-14 24 -24 30 -51 30 l-34 0 32 -42z"/>
<path d="M689 263 c-13 -16 -12 -17 4 -4 16 13 21 21 13 21 -2 0 -10 -8 -17
-17z"/>
<path d="M1189 247 c-14 -10 -15 -16 -4 -30 17 -23 20 -22 21 13 1 17 1 30 0
30 -1 0 -8 -6 -17 -13z"/>
<path d="M1346 185 c-9 -26 -7 -32 5 -12 6 10 9 21 6 23 -2 3 -7 -2 -11 -11z"/>
<path d="M1226 165 c-3 -9 -16 -20 -28 -25 -21 -8 -20 -9 10 -9 28 -1 32 2 32
24 0 28 -5 32 -14 10z"/>
<path d="M1325 140 c-3 -5 -1 -10 4 -10 6 0 11 5 11 10 0 6 -2 10 -4 10 -3 0
-8 -4 -11 -10z"/>
</g>
</svg>
